<?xml version="1.0" encoding="UTF-8" standalone="no"?>
<!DOCTYPE svg PUBLIC "-//W3C//DTD SVG 1.1//EN" "http://www.w3.org/Graphics/SVG/1.1/DTD/svg11.dtd">
<!-- Created with Vectornator (http://vectornator.io/) -->
<svg height="100%" stroke-miterlimit="10" style="fill-rule:nonzero;clip-rule:evenodd;stroke-linecap:round;stroke-linejoin:round;" version="1.1" viewBox="0 0 24 24" width="100%" xml:space="preserve" xmlns="http://www.w3.org/2000/svg" xmlns:xlink="http://www.w3.org/1999/xlink">
<defs/>
<g id="Untitled">
<path d="M0 0L24 0L24 24L0 24L0 0Z" fill="#ff394a" fill-rule="nonzero" opacity="1" stroke="none"/>
<path d="M6 3L3 3L3 6C4.66 6 6 4.66 6 3ZM14 3L12 3C12 7.97 7.97 12 3 12L3 14C9.08 14 14 9.07 14 3ZM10 3L8 3C8 5.76 5.76 8 3 8L3 10C6.87 10 10 6.87 10 3ZM10 21L12 21C12 16.03 16.03 12 21 12L21 10C14.93 10 10 14.93 10 21ZM18 21L21 21L21 18C19.34 18 18 19.34 18 21ZM14 21L16 21C16 18.24 18.24 16 21 16L21 14C17.13 14 14 17.13 14 21Z" fill="#ffffff" fill-rule="nonzero" opacity="1" stroke="none"/>
</g>
</svg>
